# xmcd
#
# Track frame offsets:
#	150
#	18798
#	38465
#	73063
#	84108
#	103632
#	117645
#	135699
#
# Disc length: 2093 seconds
#
# Revision: 1
# Processed by: cddbd v1.4PL0 Copyright (c) Steve Scherf et al.
# Submitted via: audiograbber 1.82.02
#
DISCID=5d082b08
DTITLE=Ten Years After - Cricklewood  Green
DYEAR=1900
DGENRE=Blues
TTITLE0=Ten Years After - Sugar the Road
TTITLE1=Ten Years After - Working on the Road
TTITLE2=Ten Years After - 50,000 Miles Beneath My Brain
TTITLE3=Ten Years After - Year 3,000 Blues
TTITLE4=Ten Years After - Me and My Baby
TTITLE5=Ten Years After - Love Like a Man
TTITLE6=Ten Years After - Circles
TTITLE7=Ten Years After - As the Sun Still Burns Away
EXTD=
EXTT0=
EXTT1=
EXTT2=
EXTT3=
EXTT4=
EXTT5=
EXTT6=
EXTT7=
PLAYORDER=
